<?xml version="1.0" encoding="UTF-8"?>
<svg version="1.1" xmlns="http://www.w3.org/2000/svg" width="500" height="500">
<path d="M0 0 C165 0 330 0 500 0 C500 165 500 330 500 500 C335 500 170 500 0 500 C0 335 0 170 0 0 Z " fill="#FEFEFE" transform="translate(0,0)"/>
<path d="M0 0 C12.26530571 -0.18549939 24.53027684 -0.32757793 36.79670048 -0.41449738 C42.4928199 -0.45621865 48.1879785 -0.51279196 53.88354492 -0.60351562 C59.38198193 -0.69054943 64.8794959 -0.73829716 70.37856865 -0.75901794 C72.47461923 -0.77378057 74.57062021 -0.80261011 76.66627693 -0.84584045 C79.60682737 -0.90407779 82.54358322 -0.911907 85.48461914 -0.90820312 C86.34777237 -0.93696533 87.2109256 -0.96572754 88.10023499 -0.99536133 C91.84762534 -0.94441832 94.10868461 -0.74623513 97.04107475 1.70884705 C98.83579101 3.73385235 100.43458829 5.79447423 102 8 C102.97206428 9.26447914 103.9457213 10.52773763 104.921875 11.7890625 C105.86736377 13.06565372 106.81000543 14.34435783 107.75 15.625 C111.56136929 20.76060798 115.40954794 25.85726522 119.375 30.875 C119.81610107 31.43324463 120.25720215 31.99148926 120.71166992 32.56665039 C121.16388916 33.13891357 121.6161084 33.71117676 122.08203125 34.30078125 C131.95374364 46.79312106 141.65176583 59.42280147 151.34375 72.0546875 C157.95100616 80.65699179 164.60637284 89.22138135 171.27099609 97.77929688 C174.18217039 101.51835948 177.09104625 105.25920973 180 109 C187.40247121 99.78055858 194.48162172 90.40527551 201.25805664 80.71948242 C205.07518434 75.27619428 208.98212948 69.90604556 212.9375 64.5625 C219.15238076 56.16477358 225.28757247 47.71277938 231.39111328 39.23388672 C234.62195786 34.74796443 237.8612208 30.26811646 241.09887695 25.78710938 C243.95931327 21.82750981 246.81727185 17.86615124 249.671875 13.90234375 C250.27064453 13.07154297 250.86941406 12.24074219 251.48632812 11.38476562 C252.64201825 9.78113359 253.79699269 8.17698548 254.95117188 6.57226562 C255.46744141 5.85619141 255.98371094 5.14011719 256.515625 4.40234375 C256.97227539 3.76804443 257.42892578 3.13374512 257.89941406 2.48022461 C259 1 259 1 260 0 C262.89143151 -0.09523905 265.75892064 -0.12553027 268.65063477 -0.11352539 C270.0114769 -0.11374443 270.0114769 -0.11374443 271.39981079 -0.1139679 C274.41369985 -0.11326841 277.42752793 -0.10547434 280.44140625 -0.09765625 C282.52505967 -0.0957922 284.60871354 -0.09436824 286.69236755 -0.09336853 C292.18823446 -0.08954234 297.68407513 -0.0797112 303.17993164 -0.06866455 C308.78336227 -0.0584526 314.38679713 -0.05387137 319.99023438 -0.04882812 C330.99350114 -0.03808902 341.99674839 -0.02101139 353 0 C348.64806267 7.68687934 348.64806267 7.68687934 346.07421875 10.91796875 C345.5328125 11.60439453 344.99140625 12.29082031 344.43359375 12.99804688 C343.85738281 13.72056641 343.28117187 14.44308594 342.6875 15.1875 C337.53434969 21.72678251 332.47408597 28.32350095 327.5 35 C322.67218119 41.47147792 317.78600217 47.88977488 312.8125 54.25 C308.03043872 60.36601866 303.32100884 66.52813224 298.67895508 72.75097656 C294.48966488 78.36243323 290.24960749 83.93412026 286 89.5 C281.24413668 95.73033232 276.50540699 101.97209747 271.8125 108.25 C266.75426364 115.01441448 261.63388395 121.72947842 256.49609375 128.43359375 C253.98297577 131.7134257 251.47602956 134.99788035 248.97265625 138.28515625 C248.28647217 139.1860498 247.60028809 140.08694336 246.89331055 141.01513672 C245.51691287 142.82417189 244.14204989 144.63437584 242.76879883 146.44580078 C239.7970456 150.36038481 236.81442382 154.25809883 233.7265625 158.08203125 C233.00956177 158.97873535 233.00956177 158.97873535 232.27807617 159.89355469 C231.03742763 161.43809547 229.78296824 162.97151526 228.52734375 164.50390625 C226.76359337 166.79786633 226.76359337 166.79786633 227.26074219 168.96166992 C228.50533331 172.3933381 231.00024894 174.97983468 233.3125 177.75 C237.68913497 183.09995124 241.94356723 188.51157075 246.0625 194.0625 C250.64290866 200.2186048 255.32451992 206.28093453 260.08203125 212.30078125 C268.26924832 222.66144551 276.33406737 233.11937723 284.375 243.59375 C287.56627975 247.74241368 290.784213 251.87032481 294 256 C298.81351723 262.18146123 303.60424879 268.37921882 308.375 274.59375 C311.56627975 278.74241368 314.784213 282.87032481 318 287 C322.81351723 293.18146123 327.60424879 299.37921882 332.375 305.59375 C335.56628205 309.74241667 338.78462395 313.87000133 342 318 C343.19013022 319.53122975 344.38023474 321.06247947 345.5703125 322.59375 C347.74522794 325.39128829 349.92755803 328.18271791 352.1171875 330.96875 C353.03656246 332.14575201 353.95583997 333.32283014 354.875 334.5 C355.67679687 335.5209375 356.47859375 336.541875 357.3046875 337.59375 C359 340 359 340 359 342 C346.52615756 342.30183491 334.05318983 342.53250535 321.57643318 342.67355824 C315.78206111 342.74127597 309.99019516 342.83303694 304.19726562 342.98071289 C298.60140452 343.12246459 293.00794553 343.19979255 287.41042709 343.23340416 C285.28033504 343.25733924 283.15036784 343.30408594 281.02130508 343.37449074 C264.80885954 343.88905641 264.80885954 343.88905641 260.16622162 340.76671982 C256.59786842 337.34889148 254.37945914 333.31067463 252 329 C250.40262993 326.77002434 248.71051662 324.64722331 247 322.5 C246.16461243 321.41824995 245.33103439 320.33509787 244.5 319.25 C243.88125 318.445625 243.88125 318.445625 243.25 317.625 C228.66666667 298.66666667 214.08333333 279.70833333 199.5 260.75 C199.08717773 260.21334717 198.67435547 259.67669434 198.24902344 259.1237793 C197.41888234 258.04456341 196.58880382 256.96529938 195.75878906 255.88598633 C193.62713521 253.11425024 191.49427399 250.34345629 189.359375 247.57421875 C188.7087207 246.72960083 188.7087207 246.72960083 188.04492188 245.86791992 C187.1927612 244.76207115 186.33991487 243.65675034 185.48632812 242.55200195 C182.63371164 238.85215837 179.85900864 235.10354416 177.15625 231.29296875 C176.7746875 230.86628906 176.393125 230.43960938 176 230 C175.34 230 174.68 230 174 230 C172.64711345 231.59472769 172.64711345 231.59472769 171.3125 233.69921875 C170.78398437 234.48941406 170.25546875 235.27960938 169.7109375 236.09375 C169.14632812 236.9496875 168.58171875 237.805625 168 238.6875 C164.15095401 244.42715669 160.27983779 250.07277149 156 255.5 C151.97451797 260.62630155 148.27387502 265.91244404 144.625 271.3125 C140.07264237 278.04729377 135.36548114 284.61408463 130.44750977 291.08569336 C126.36720075 296.46869916 122.4571996 301.95777788 118.58105469 307.48901367 C114.32119611 313.56369443 109.98770301 319.58267507 105.62719727 325.58544922 C105.12502686 326.27783691 104.62285645 326.97022461 104.10546875 327.68359375 C103.60991989 328.33164474 103.11437103 328.97969574 102.60380554 329.64738464 C100.92060102 331.94600248 100.92060102 331.94600248 99.92779541 334.57469177 C98.31931454 337.9195577 96.96276132 339.72217036 94 342 C87.05646208 343.91659901 79.43880045 343.15827101 72.31640625 342.9765625 C70.17410079 342.95789966 68.03175251 342.94367052 65.88938904 342.9336853 C60.26418176 342.89559346 54.64157731 342.79744618 49.01739502 342.68664551 C43.27302258 342.58414898 37.52822739 342.53863423 31.78320312 342.48828125 C20.52099489 342.38119366 9.26071429 342.21063598 -2 342 C-1.04806926 340.55870064 -0.09435525 339.11857898 0.86010742 337.67895508 C1.39101486 336.87686111 1.9219223 336.07476715 2.46891785 335.24836731 C4.27550633 332.59542378 6.23867364 330.13625542 8.3125 327.6875 C12.13048426 323.09201233 15.74911915 318.39213569 19.3125 313.59765625 C22.69216777 309.05786258 26.12990001 304.56231681 29.5625 300.0625 C30.24900635 299.16225098 30.9355127 298.26200195 31.64282227 297.33447266 C33.05748692 295.47955559 34.47228318 293.62473889 35.88720703 291.77001953 C39.25997761 287.34808113 42.62989132 282.92396724 46 278.5 C47.33331861 276.74998878 48.66665197 274.9999888 50 273.25 C50.66 272.38375 51.32 271.5175 52 270.625 C64.66666667 254 77.33333333 237.375 90 220.75 C90.6604834 219.88310547 91.3209668 219.01621094 92.00146484 218.12304688 C93.32987611 216.37952738 94.65832639 214.63603762 95.98681641 212.89257812 C99.39578409 208.41867403 102.8039956 203.944197 106.2109375 199.46875 C106.90324463 198.55996094 107.59555176 197.65117187 108.30883789 196.71484375 C109.66931523 194.92723793 111.02792644 193.13821008 112.38452148 191.34765625 C115.29479055 187.51253673 118.21914715 183.70011685 121.26171875 179.96875 C121.98125732 179.07542969 121.98125732 179.07542969 122.71533203 178.1640625 C123.95625939 176.6312316 125.21371719 175.11182238 126.47265625 173.59375 C128.19493741 171.15139252 128.19493741 171.15139252 128.0546875 168.5625 C126.61880214 165.07383038 124.44788669 162.37485147 122.0625 159.5 C121.04880274 158.24533788 120.03579563 156.99011788 119.0234375 155.734375 C118.51264648 155.10595703 118.00185547 154.47753906 117.47558594 153.83007812 C115.33211035 151.17165771 113.26067126 148.46371919 111.1875 145.75 C107.14963488 140.48072921 103.0789636 135.23750522 99 130 C92.51767026 121.67452696 86.07925852 113.31663361 79.65625 104.9453125 C74.79260269 98.61309636 69.90519801 92.30009723 65 86 C58.51778974 77.67443295 52.07925945 69.31663482 45.65625 60.9453125 C40.79260269 54.61309636 35.90519801 48.30009723 31 42 C25.30628465 34.68715346 19.64186277 27.35291951 14 20 C12.20899079 17.66616103 10.4171767 15.33294251 8.625 13 C7.83351563 11.96875 7.04203125 10.9375 6.2265625 9.875 C4.75432319 7.97400328 3.24918219 6.09799362 1.7109375 4.25 C0 2 0 2 0 0 Z " fill="#000000" transform="translate(72,75)"/>
</svg>
